<svg width="64" height="64" viewBox="0 0 64 64" fill="none" xmlns="http://www.w3.org/2000/svg">
<g style="mix-blend-mode:luminosity" opacity="0.1">
<path d="M32 51.2C42.6039 51.2 51.2001 42.6039 51.2001 32C51.2001 21.3961 42.6039 12.8 32 12.8C21.3962 12.8 12.8 21.3961 12.8 32C12.8 42.6039 21.3962 51.2 32 51.2Z" fill="white"/>
<path fill-rule="evenodd" clip-rule="evenodd" d="M48.487 29.3195L47.8639 29.8242C45.7882 31.178 43.468 32.1372 41.0258 32.6512C34.5336 34.334 29.8076 34.6706 24.4406 36.0167C23.3642 36.2775 22.3107 36.6207 21.2898 37.043C22.3303 37.5652 23.3995 38.0315 24.4926 38.4396C26.5781 37.8101 28.7072 37.3266 30.8636 36.9929C32.0756 36.7906 35.7802 36.1342 38.4633 35.5626C43.2933 34.5189 50.3739 32.2808 48.4875 29.3358V29.3195H48.487ZM45.3881 23.2102C44.1966 22.683 42.9635 22.2498 41.7008 21.9147C41.0163 22.4986 40.2388 22.9703 39.3987 23.3114C40.8917 23.6298 42.3654 24.0287 43.8129 24.5063C44.0727 24.6406 45.2322 23.5469 45.4227 23.2945L45.3881 23.2102ZM21.6882 29.7062C27.9899 27.8385 34.6375 27.2664 41.3544 25.4656C39.1609 24.7217 36.8183 24.4912 34.5162 24.7929C30.3641 25.2753 26.2629 26.1086 22.2592 27.2832C20.7707 27.7205 12.9458 29.9417 15.1965 33.0716C15.1965 33.0716 16.5464 31.2208 21.6882 29.7062ZM17.3254 40.4258C17.3254 40.9974 17.6545 41.519 18.4334 42.108C18.534 41.8018 18.6927 41.5168 18.9011 41.2666C18.3643 40.995 17.8387 40.7031 17.3254 40.3916V40.4253V40.4258ZM20.355 40.1392C20.9051 39.8135 21.4847 39.5375 22.0866 39.3147C21.1859 38.9449 20.355 38.5408 19.3162 38.103C18.9229 38.3379 18.5569 38.6142 18.2255 38.9275C18.9313 39.3476 19.6471 39.7516 20.3723 40.1392H20.3555H20.355ZM44.5918 26.6774C42.7513 27.4712 40.8388 28.0965 38.8791 28.545C36.7323 29.0834 31.504 29.8411 25.8778 31.0691C24.1462 31.4563 19.2816 32.6006 16.9096 34.6369C17.4516 35.047 18.0311 35.407 18.6412 35.7137C19.972 34.9353 21.4212 34.3673 22.9348 34.031C25.936 33.2488 28.9826 32.6419 32.0582 32.2134C36.1674 31.5653 40.219 30.6089 44.1767 29.3527C45.1595 29.0177 46.0824 28.5351 46.9118 27.9223C46.2025 27.403 45.4215 26.9837 44.5918 26.6768V26.6774ZM46.4615 25.5331C47.0602 25.8018 47.6388 26.1111 48.1931 26.4587C48.5909 25.7011 48.3484 25.2133 47.5175 24.5063C47.2041 24.8897 46.8438 25.2345 46.4447 25.5331H46.4615ZM17.0315 37.0092C16.5484 36.7329 16.0749 36.441 15.6116 36.1342C15.3691 36.6894 15.8368 37.2953 16.3559 37.5982C16.5682 37.3889 16.794 37.192 17.0315 37.0092ZM43.9342 19.4749C43.7277 19.9521 43.4211 20.3821 43.034 20.7372C43.9974 21.0065 44.945 21.3268 45.8725 21.6966C45.7518 20.8384 44.7651 20.0139 43.9336 19.4749H43.9342ZM14.1918 24.8766C20.8227 20.5186 28.1464 17.9782 40.5408 20.1319C40.8655 19.9827 41.1483 19.7594 41.3654 19.4811C41.5824 19.2027 41.7272 18.8774 41.7874 18.5329C38.3146 17.3833 34.6476 16.8922 30.9849 17.0863C25.8686 17.3202 20.8629 18.6168 16.3039 20.889L17.4293 19.4586C21.9805 17.2442 26.9581 15.9832 32.0409 15.757C35.3544 15.6156 38.6678 16.0551 41.8221 17.0525C41.441 16.3123 40.5581 15.942 39.2596 15.3698C35.0879 13.4853 27.3144 13.3167 20.9612 16.1269C21.7948 15.5679 22.6683 15.0676 23.5751 14.6296C26.6748 13.3248 30.0329 12.7041 33.4082 12.812C37.1078 12.8043 40.6767 14.1428 43.4145 16.5647C43.7749 16.9803 44.0353 17.469 44.1767 17.9951C45.7122 18.6394 47.023 19.7029 47.9506 21.057C48.2218 21.6479 48.312 22.3025 48.2104 22.9421C48.8467 23.3075 49.3955 23.8009 49.8202 24.3893C50.1097 24.8287 50.3041 25.321 50.3912 25.836C50.471 26.2064 50.4675 26.5892 50.3808 26.9582C50.2942 27.3271 50.1266 27.6735 49.8895 27.9734C50.5119 28.3685 50.9716 28.9642 51.188 29.6561C51.245 30.4399 51.0989 31.225 50.763 31.9395C50.4272 32.654 49.9124 33.275 49.2659 33.7455C47.1026 35.359 44.6311 36.5374 41.9953 37.2121C36.8016 38.5245 32.2309 39.0797 28.5783 39.7531C31.0177 40.3848 33.5331 40.696 36.0573 40.6782C41.1437 40.5265 46.1305 39.2672 50.6511 36.9929C50.6511 36.9929 50.4952 37.4813 50.3393 37.9017C45.4071 40.5357 39.8819 41.9405 34.2564 41.9911C31.1883 41.8801 28.1491 41.3707 25.2196 40.4764C24.3585 40.6891 23.5181 40.9768 22.7096 41.3346C26.1911 42.9255 29.9638 43.8237 33.8066 43.9767C38.9341 44.083 44.035 43.2319 48.8334 41.4695C48.5909 41.705 48.4702 42.0917 48.2277 42.3103C44.7299 43.8833 40.9834 44.8677 37.1474 45.2216C34.0717 45.3754 30.9879 45.1893 27.9553 44.6669C25.5956 44.1801 23.3052 43.4172 21.1339 42.3946C20.7701 42.6588 20.5276 43.0516 20.4589 43.4883C28.994 47.9644 36.9748 48.0655 46.0636 45.1711L45.2327 45.9619C41.4798 47.6667 37.376 48.5136 33.2352 48.4378C29.0944 48.362 25.0262 47.3655 21.3417 45.5246C21.1314 45.4405 20.9287 45.3392 20.736 45.2216C23.5157 47.9561 27.1902 49.6586 31.1234 50.0343C34.6799 50.3032 38.2547 49.8388 41.6142 48.6714L40.1083 49.4622C37.2527 50.8099 34.0791 51.3909 30.9156 51.1449C26.7321 50.976 22.7531 49.338 19.7146 46.534C19.0407 45.8881 18.5925 45.0523 18.4334 44.1448C17.199 43.5567 16.1607 42.6407 15.4384 41.5027C15.0968 40.8781 15.0102 40.151 15.1959 39.467C15.2271 39.2696 15.2854 39.0772 15.3691 38.8948C14.6945 38.4997 14.1064 37.9793 13.6381 37.3633C13.4051 36.9251 13.2997 36.4332 13.3332 35.9409C13.3667 35.4485 13.5378 34.9745 13.8281 34.57C13.4696 34.1992 13.1773 33.7727 12.9631 33.3082C12.8129 32.8117 12.7658 32.2911 12.8245 31.7767C12.9797 30.8405 13.4128 29.969 14.0706 29.2695C16.018 27.3341 18.4728 25.9549 21.1685 25.2813C23.6748 24.4666 26.2304 23.8034 28.8208 23.2956C32.1939 22.7914 35.5348 22.1002 38.8271 21.2256C34.4953 20.3792 30.0328 20.39 25.7053 21.2573C21.3779 22.1245 17.274 23.8306 13.6381 26.2738L14.1918 24.8772V24.8766Z" fill="#1D5378"/>
</g>
</svg>
