<svg width="64" height="64" viewBox="0 0 64 64" fill="none" xmlns="http://www.w3.org/2000/svg">
<g style="mix-blend-mode:luminosity" opacity="0.1">
<path d="M12.8 32C12.8 42.6039 21.3962 51.2 32 51.2C42.6039 51.2 51.2001 42.6039 51.2001 32C51.2001 21.3961 42.6039 12.8 32 12.8C21.3962 12.8 12.8 21.3961 12.8 32Z" fill="#FAEB00"/>
<path fill-rule="evenodd" clip-rule="evenodd" d="M31.9745 36.1123L40.6333 44.8L44.024 41.3955L35.3583 32.6835L37.0466 30.9974V27.6084L38.251 26.3999L38.2544 29.2074L39.433 30.3725L43.6575 26.1176L44.7999 27.2513C44.7999 26.5216 44.5892 24.0029 42.5747 22.0281C40.322 19.8206 38.0716 21.1087 37.2918 21.8933L33.2099 25.9991L34.2263 27.0216L31.9745 29.2751L29.7289 27.0216L30.7468 25.9991L26.6613 21.8933C25.8862 21.1087 23.6329 19.8206 21.3744 22.0281C19.3707 24.0029 19.2 26.5239 19.2 27.2554L20.2974 26.1176L24.5235 30.3725L25.7021 29.1955V26.3999L26.9093 27.6084L26.9055 30.9872L28.5976 32.6847L20.0162 41.3072L23.4031 44.7094L31.9745 36.1123Z" fill="black"/>
</g>
</svg>
