<svg width="64" height="64" viewBox="0 0 64 64" fill="none" xmlns="http://www.w3.org/2000/svg">
<g style="mix-blend-mode:luminosity" opacity="0.1">
<path d="M35.8264 13.2063V23.1619H31.9666C27.0908 23.1619 23.1622 27.0902 23.1622 31.9669C23.1622 36.8418 27.0908 40.7701 31.9648 40.7701H35.8264V50.7258C44.629 49.0328 51.2002 41.3123 51.2002 31.9651C51.2002 22.6877 44.6308 14.9672 35.8264 13.2063Z" fill="#003791"/>
<path d="M31.9665 43.884C25.3972 43.884 20.045 38.5348 20.045 31.9669C20.045 25.399 25.3954 20.048 31.9629 20.048H32.7091V12.8H31.9647C21.4016 12.8 12.8 21.4009 12.8 31.9651C12.8 42.5991 21.4016 51.2 31.9665 51.2H32.711V43.8876H31.9665V43.884Z" fill="#FF4B5F"/>
</g>
</svg>
