<svg width="18" height="18" viewBox="0 0 18 18" fill="none" xmlns="http://www.w3.org/2000/svg">
<path d="M17.4375 3.69C17.4375 2.29045 16.031 1.29103 14.4844 1.25165V2.85021C14.4844 3.75857 13.712 4.18643 12.7969 4.18643C11.8816 4.18643 11.1094 3.76686 11.1094 2.85851V1.25592L6.46875 1.25593V2.85852C6.46875 3.76688 5.69655 4.39575 4.78125 4.39575C3.86602 4.39575 3.09375 3.76006 3.09375 2.85171V1.25528C1.5727 1.31919 0.5625 2.30667 0.5625 3.68968V15.0711C0.5625 16.7457 1.82812 18.0016 3.51562 18H14.4844C16.1719 18 17.4375 16.7457 17.4375 15.0711V3.69ZM16.1719 15.0711C16.1719 15.9591 15.3791 16.7457 14.4844 16.7457H3.51562C2.62099 16.7457 1.82812 15.9591 1.82812 15.0711V6.27965H16.1719V15.0711Z" fill="#FF7E00"/>
<path d="M3.9375 0.685131V2.66401C3.9375 3.04251 4.31512 3.34914 4.78125 3.34914C5.24723 3.34914 5.625 3.04251 5.625 2.66401V0.685131C5.62508 0.306632 5.2473 0 4.78133 0C4.31512 0.000310042 3.9375 0.306942 3.9375 0.685131Z" fill="#FF7E00"/>
<path d="M12.7968 0.000306623C12.3308 0.000306623 11.9531 0.306938 11.9531 0.685438V2.66431C11.9531 3.04281 12.3307 3.34945 12.7968 3.34945C13.2629 3.34945 13.6406 3.04281 13.6406 2.66431V0.685128C13.6399 0.306938 13.2626 0.000306623 12.7968 0.000306623Z" fill="#FF7E00"/>
<path d="M8.31867 13.8005V14.6525H4.60617V13.8005H5.96587V9.91847C5.96587 9.76497 5.97052 9.60686 5.9798 9.44415L5.01455 10.2454C4.95886 10.2884 4.90317 10.316 4.84748 10.3283C4.79489 10.3375 4.74384 10.3375 4.69434 10.3283C4.64794 10.3191 4.60617 10.3038 4.56905 10.2823C4.53192 10.2577 4.50408 10.2316 4.48552 10.204L4.12355 9.71125L6.17006 7.98435H7.11211V13.8005H8.31867Z" fill="#FF7E00"/>
<path d="M12.2036 12.1427V9.96452C12.2036 9.75883 12.2175 9.53165 12.2454 9.28298L10.1617 12.1427H12.2036ZM14.0459 12.1427V12.8012C14.0459 12.8626 14.0258 12.9164 13.9856 12.9624C13.9454 13.0054 13.8881 13.0269 13.8139 13.0269H13.2013V14.6525H12.2036V13.0269H9.37282C9.29548 13.0269 9.22741 13.0039 9.16863 12.9578C9.10985 12.9087 9.07273 12.8488 9.05726 12.7782L8.9366 12.2026L12.1154 7.98895H13.2013V12.1427H14.0459Z" fill="#FF7E00"/>
</svg>
