<svg width="64" height="64" viewBox="0 0 64 64" fill="none" xmlns="http://www.w3.org/2000/svg">
<g style="mix-blend-mode:luminosity" opacity="0.2">
<path d="M32 64C49.6731 64 64 49.6731 64 32C64 14.3269 49.6731 0 32 0C14.3269 0 0 14.3269 0 32C0 49.6731 14.3269 64 32 64Z" fill="white"/>
<path d="M16 32V35.2L36.8 19.2L48 27.2V24L36.8 16L16 32Z" fill="url(#paint0_linear)"/>
<path d="M16 38.4V41.6L36.8 25.6L48 33.6V30.4L36.8 22.4L16 38.4Z" fill="url(#paint1_linear)"/>
<path d="M16 44.8V48L36.8 32L48 40V36.8L36.8 28.8L16 44.8Z" fill="url(#paint2_linear)"/>
<rect x="33.6" y="40" width="8" height="8" fill="#F37022"/>
</g>
<defs>
<linearGradient id="paint0_linear" x1="16" y1="35.2" x2="51.2" y2="35.2" gradientUnits="userSpaceOnUse">
<stop stop-color="#0354A3"/>
<stop offset="1" stop-color="#1CAE4B"/>
</linearGradient>
<linearGradient id="paint1_linear" x1="16" y1="35.2" x2="51.2" y2="35.2" gradientUnits="userSpaceOnUse">
<stop stop-color="#0354A3"/>
<stop offset="1" stop-color="#1CAE4B"/>
</linearGradient>
<linearGradient id="paint2_linear" x1="16" y1="35.2" x2="51.2" y2="35.2" gradientUnits="userSpaceOnUse">
<stop stop-color="#0354A3"/>
<stop offset="1" stop-color="#1CAE4B"/>
</linearGradient>
</defs>
</svg>
