<svg width="18" height="18" viewBox="0 0 18 18" fill="none" xmlns="http://www.w3.org/2000/svg">
<g clip-path="url(#clip0)">
<path d="M17.6373 16.6139H0.340305V18.0553H17.6373V16.6139Z" fill="#FF7E00"/>
<path d="M14.9272 9.1454L14.0288 10.0141L15.0307 11.0504L17.1669 8.98481C17.3043 8.85196 17.3833 8.66997 17.3866 8.47888C17.3898 8.28779 17.317 8.10324 17.1842 7.96582L15.1186 5.82957L14.0823 6.83146L14.9184 7.69619C7.76345 7.11133 2.90252 1.92468 1.24835 -0.94041L4.97379e-05 -0.219701C0.884585 1.31236 2.76098 3.63086 5.37463 5.54327C8.31383 7.6938 11.52 8.9011 14.9272 9.1454Z" fill="#FF7E00"/>
<path d="M15.4753 12.2897C15.6665 12.2897 15.8498 12.3656 15.985 12.5008C16.1201 12.6359 16.196 12.8192 16.196 13.0104V15.8932H11.8718V13.0104C11.8718 12.8192 11.9477 12.6359 12.0829 12.5008C12.218 12.3656 12.4014 12.2897 12.5925 12.2897H15.4753Z" fill="#FF7E00"/>
<path d="M10.4303 10.8484C10.6214 10.8484 10.8048 10.9243 10.9399 11.0595C11.0751 11.1946 11.151 11.378 11.151 11.5691V15.8934H6.82675V11.5691C6.82675 11.378 6.90268 11.1946 7.03784 11.0595C7.173 10.9243 7.35631 10.8484 7.54745 10.8484H10.4303Z" fill="#FF7E00"/>
<path d="M5.38513 7.96539C5.57627 7.96539 5.75959 8.04132 5.89474 8.17648C6.0299 8.31164 6.10583 8.49496 6.10583 8.6861V15.8932H1.78158V8.6861C1.78158 8.49496 1.85751 8.31164 1.99267 8.17648C2.12783 8.04132 2.31114 7.96539 2.50229 7.96539H5.38513Z" fill="#FF7E00"/>
</g>
<defs>
<clipPath id="clip0">
<rect width="18" height="18" fill="white"/>
</clipPath>
</defs>
</svg>
