<svg width="26" height="28" viewBox="0 0 26 28" fill="none" xmlns="http://www.w3.org/2000/svg">
<path d="M10.9375 13.125V12.25H17.0625V18.375C17.0618 18.6069 16.9694 18.829 16.8055 18.993C16.6415 19.1569 16.4194 19.2493 16.1875 19.25H15.6012C15.3714 19.2498 15.1437 19.2949 14.9313 19.3828C14.7188 19.4706 14.5258 19.5994 14.3631 19.7619L14 20.125L13.6369 19.7619C13.4742 19.5994 13.2812 19.4706 13.0687 19.3828C12.8563 19.2949 12.6286 19.2498 12.3988 19.25H11.8125C11.5806 19.2493 11.3585 19.1569 11.1945 18.993C11.0306 18.829 10.9382 18.6069 10.9375 18.375V13.125Z" fill="#EB3542"/>
<path d="M9.62514 21.875L10.5001 21.4375V22.75L6.12514 24.0625L6.07264 24.0887L5.60889 23.2312L5.68764 23.1875L9.62514 21.875Z" fill="#D79D44"/>
<path d="M22.75 23.1875L21.875 24.0625L17.5 22.75V21.4375L18.375 21.875L22.2162 23.1569L22.2294 23.1087C22.3979 23.1615 22.5735 23.188 22.75 23.1875Z" fill="#D79D44"/>
<path d="M11.8125 7C12.4007 7.14551 12.9272 7.47457 13.3158 7.93947C13.7044 8.40437 13.9349 8.98095 13.9738 9.58562C13.9913 9.86125 14 10.1631 14 10.5V12.25H11.8125C11.4644 12.25 11.1306 12.1117 10.8844 11.8656C10.6383 11.6194 10.5 11.2856 10.5 10.9375C11.2262 10.9375 11.8125 10.5481 11.8125 10.0625C11.8125 9.275 11.1956 8.49187 10.5131 7.86187C9.97016 7.37111 9.37952 6.93583 8.75 6.5625L8.9775 6.44875C9.04585 6.41448 9.11594 6.38381 9.1875 6.35687C9.55485 6.20377 9.9489 6.12497 10.3469 6.125H12.6875L11.8125 7Z" fill="#FFD45D"/>
<path d="M18.8125 6.35687C18.8841 6.38381 18.9542 6.41448 19.0225 6.44875L19.25 6.5625C18.6205 6.93583 18.0298 7.37111 17.4869 7.86187C16.8044 8.49187 16.1875 9.275 16.1875 10.0625C16.1875 10.5481 16.7738 10.9375 17.5 10.9375C17.5 11.2856 17.3617 11.6194 17.1156 11.8656C16.8694 12.1117 16.5356 12.25 16.1875 12.25H14V10.5C14 10.1631 14.0088 9.86125 14.0263 9.58562C14.0651 8.98095 14.2956 8.40437 14.6842 7.93947C15.0728 7.47457 15.5993 7.14551 16.1875 7L15.3125 6.125H17.6531C18.0511 6.12497 18.4451 6.20377 18.8125 6.35687Z" fill="#FFD45D"/>
<path d="M8.75 6.5625C9.37952 6.93583 9.97016 7.37111 10.5131 7.86187L10.5 7.875H7.875C7.875 6.5625 8.75 6.5625 8.75 6.5625Z" fill="#F0AF4C"/>
<path d="M20.1253 7.875H17.5003L17.4872 7.86187C18.0302 7.37111 18.6208 6.93583 19.2503 6.5625C19.2503 6.5625 20.1253 6.5625 20.1253 7.875Z" fill="#F0AF4C"/>
<path d="M15.75 3.0625C15.7435 3.53756 15.5839 3.99786 15.295 4.375H15.3125V4.8125H12.6875V4.375H12.705C12.4161 3.99786 12.2565 3.53756 12.25 3.0625C12.25 2.33625 12.6875 1.75 14 1.75C15.3125 1.75 15.75 2.33625 15.75 3.0625Z" fill="#FFD45D"/>
<path d="M11.3356 5.16687L10.9375 6.12499H10.3469C9.9489 6.12496 9.55485 6.20376 9.1875 6.35686V6.12499L8.78938 5.16687C8.7638 5.10742 8.75041 5.04345 8.75 4.97874C8.77198 4.79987 8.86294 4.63666 9.00351 4.52388C9.14407 4.41111 9.32312 4.35768 9.5025 4.375H10.6225C10.8019 4.35768 10.9809 4.41111 11.1215 4.52388C11.2621 4.63666 11.353 4.79987 11.375 4.97874C11.3746 5.04345 11.3612 5.10742 11.3356 5.16687Z" fill="#FFD45D"/>
<path d="M19.25 4.97874C19.2496 5.04345 19.2362 5.10742 19.2106 5.16687L18.8125 6.12499V6.35686C18.4451 6.20376 18.0511 6.12496 17.6531 6.12499H17.0625L16.6644 5.16687C16.6388 5.10742 16.6254 5.04345 16.625 4.97874C16.647 4.79987 16.7379 4.63666 16.8785 4.52388C17.0191 4.41111 17.1981 4.35768 17.3775 4.375H18.4975C18.6769 4.35768 18.8559 4.41111 18.9965 4.52388C19.1371 4.63666 19.228 4.79987 19.25 4.97874Z" fill="#FFD45D"/>
<path d="M8.3125 14.4375H7L7.4375 13.125C6.5625 13.125 6.5625 11.375 6.5625 11.375H7.875C7.24938 11.06 7.07 9.84812 7.0175 9.1875C7 8.925 7 8.75 7 8.75L9.1875 10.9375C9.3684 11.1106 9.48479 11.3402 9.51741 11.5884C9.55003 11.8367 9.49692 12.0886 9.36687 12.3025C9.30409 12.4128 9.21482 12.5058 9.10712 12.573C8.99943 12.6402 8.8767 12.6796 8.75 12.6875C8.75 12.6875 8.75 14.4375 10.9375 13.125V14.875H10.0625L9.1875 15.3125L8.3125 14.4375Z" fill="#FFD45D"/>
<path d="M20.125 11.375H21.4375C21.4375 11.375 21.4375 13.125 20.5625 13.125L21 14.4375H19.6875L18.8125 15.3125L17.9375 14.875H17.0625V13.125C19.25 14.4375 19.25 12.6875 19.25 12.6875C19.1233 12.6796 19.0006 12.6402 18.8929 12.573C18.7852 12.5058 18.6959 12.4128 18.6331 12.3025C18.5031 12.0886 18.45 11.8367 18.4826 11.5884C18.5152 11.3402 18.6316 11.1106 18.8125 10.9375L21 8.75C21 8.75 21 8.925 20.9825 9.1875C20.93 9.84812 20.7506 11.06 20.125 11.375Z" fill="#FFD45D"/>
<path d="M21 21.4375H24.5C24.5 21.9016 24.3156 22.3468 23.9874 22.6749C23.6592 23.0031 23.2141 23.1875 22.75 23.1875C22.5735 23.1881 22.3979 23.1615 22.2294 23.1088C21.873 22.9977 21.5615 22.7756 21.3403 22.475C21.1191 22.1743 20.9999 21.8108 21 21.4375Z" fill="#FFD45D"/>
<path d="M13.3875 23.3363C13.4356 22.9381 13.475 22.575 13.51 22.3125C13.5406 22.0413 13.5625 21.875 13.5625 21.875L13.58 21.8619C13.7113 22.015 13.8556 22.1681 14 22.3125C14.1444 22.1681 14.2887 22.015 14.42 21.8619L14.4375 21.875C14.4375 21.875 14.4594 22.0413 14.49 22.3125C14.525 22.575 14.5644 22.9381 14.6125 23.3363C14.735 24.4038 14.875 25.7512 14.875 26.25L14 27.5625L13.125 26.25C13.125 25.7512 13.265 24.4038 13.3875 23.3363Z" fill="#F0AF4C"/>
<path d="M14 22.3125C13.8556 22.1681 13.7113 22.015 13.58 21.8619C12.8943 21.0606 12.3014 20.1844 11.8125 19.25H12.3988C12.6286 19.2498 12.8563 19.2949 13.0687 19.3828C13.2812 19.4706 13.4742 19.5994 13.6369 19.7619L14 20.125L14.3631 19.7619C14.5258 19.5994 14.7188 19.4706 14.9313 19.3828C15.1437 19.2949 15.3714 19.2498 15.6012 19.25H16.1875C15.6986 20.1844 15.1057 21.0606 14.42 21.8619C14.2887 22.015 14.1444 22.1681 14 22.3125Z" fill="#F0AF4C"/>
<path d="M24.5 21.4375H21C21 20.9734 21.1844 20.5283 21.5126 20.2001C21.8408 19.8719 22.2859 19.6875 22.75 19.6875C23.2141 19.6875 23.6592 19.8719 23.9874 20.2001C24.3156 20.5283 24.5 20.9734 24.5 21.4375Z" fill="#FFE96B"/>
<path d="M13.51 22.3125C13.475 22.575 13.4356 22.9381 13.3875 23.3363C12.985 23.695 12.005 24.5919 12.005 24.9375C12.005 25.375 12.25 25.375 12.25 25.375L11.8125 25.8125C11.8977 26.2679 12.0449 26.7095 12.25 27.125C10.9594 27.125 10.0625 26.3419 10.0625 25.375C10.0625 24.5131 12.3287 22.3738 13.51 22.3125Z" fill="#FFD45D"/>
<path d="M14.6127 23.3363C14.5646 22.9381 14.5252 22.575 14.4902 22.3125C15.6715 22.3738 17.9377 24.5131 17.9377 25.375C17.9377 26.3419 17.0409 27.125 15.7502 27.125C15.9553 26.7095 16.1025 26.2679 16.1877 25.8125L15.7502 25.375C15.7502 25.375 15.9952 25.375 15.9952 24.9375C15.9952 24.5919 15.0152 23.695 14.6127 23.3363Z" fill="#FFD45D"/>
<path d="M10.5 21.4375L9.625 21.875L9.1875 21.4375C8.71534 21.4306 8.25687 21.2778 7.875 21C8.25563 21 8.75 19.6875 8.75 19.6875C8.75 18.375 10.9375 18.375 10.9375 18.375C10.9382 18.6069 11.0306 18.829 11.1945 18.993C11.3585 19.1569 11.5806 19.2493 11.8125 19.25C10.5 19.25 11.8125 21.4375 11.8125 21.4375C10.9375 22.3125 10.5 21.4375 10.5 21.4375Z" fill="#F0AF4C"/>
<path d="M16.1875 21.4375C16.1875 21.4375 17.5 19.25 16.1875 19.25C16.4194 19.2493 16.6415 19.1569 16.8055 18.993C16.9694 18.829 17.0618 18.6069 17.0625 18.375C17.0625 18.375 19.25 18.375 19.25 19.6875C19.25 19.6875 19.74 21 20.125 21C19.7431 21.2778 19.2847 21.4306 18.8125 21.4375L18.375 21.875L17.5 21.4375C17.5 21.4375 17.0625 22.3125 16.1875 21.4375Z" fill="#F0AF4C"/>
<path d="M9.1875 15.3125L10.0625 14.875H10.9375V16.625H9.1875C9.1875 17.5 7.4375 18.375 7.4375 18.375C7 17.9375 7 15.75 7 15.75C6.5625 16.625 4.375 17.0625 4.375 17.0625C4.375 16.1875 5.6875 14.875 5.6875 14.875C4.68599 15.1336 3.65887 15.2804 2.625 15.3125C3.0625 14.4375 4.8125 13.5625 4.8125 13.5625C4.06799 13.5775 3.32929 13.4286 2.6488 13.1261C1.96832 12.8237 1.36273 12.3752 0.875 11.8125H4.375C1.75 11.375 0.4375 8.75 0.4375 8.75L4.375 10.0625C1.3125 8.3125 1.3125 6.125 1.3125 6.125L3.9375 7.875C3.55886 7.38374 3.31861 6.80009 3.24168 6.18463C3.16475 5.56918 3.25394 4.94435 3.5 4.375L7 9.1875H7.0175C7.07 9.84812 7.24937 11.06 7.875 11.375H6.5625C6.5625 11.375 6.5625 13.125 7.4375 13.125L7 14.4375H8.3125L9.1875 15.3125Z" fill="#F0AF4C"/>
<path d="M18.8125 16.625H17.0625V14.875H17.9375L18.8125 15.3125L19.6875 14.4375H21L20.5625 13.125C21.4375 13.125 21.4375 11.375 21.4375 11.375H20.125C20.7506 11.06 20.93 9.84812 20.9825 9.1875H21L24.5 4.375C24.7461 4.94435 24.8353 5.56918 24.7583 6.18463C24.6814 6.80009 24.4411 7.38374 24.0625 7.875L26.6875 6.125C26.6875 6.125 26.6875 8.3125 23.625 10.0625L27.5625 8.75C27.5625 8.75 26.25 11.375 23.625 11.8125H27.125C26.6373 12.3752 26.0317 12.8237 25.3512 13.1261C24.6707 13.4286 23.932 13.5775 23.1875 13.5625C23.1875 13.5625 24.9375 14.4375 25.375 15.3125C24.3411 15.2804 23.314 15.1336 22.3125 14.875C22.3125 14.875 23.625 16.1875 23.625 17.0625C23.625 17.0625 21.4375 16.625 21 15.75C21 15.75 21 17.9375 20.5625 18.375C20.5625 18.375 18.8125 17.5 18.8125 16.625Z" fill="#F0AF4C"/>
<path d="M7.38546 25.6051L4.43059 20.1176L4.76659 19.4456C4.81824 19.3418 4.82658 19.2217 4.78977 19.1117L4.35227 17.7992C4.33412 17.7447 4.30539 17.6942 4.26773 17.6507C4.23007 17.6072 4.18422 17.5716 4.13278 17.5458C4.08135 17.5201 4.02535 17.5047 3.96798 17.5006C3.9106 17.4965 3.85298 17.5037 3.7984 17.5219C3.74382 17.54 3.69335 17.5688 3.64987 17.6064C3.60639 17.6441 3.57076 17.6899 3.545 17.7414C3.49298 17.8452 3.48436 17.9655 3.52103 18.0757L3.90078 19.2163L3.66715 19.6875H2.85909L2.11534 18.5697C2.05094 18.4731 1.95083 18.4061 1.83703 18.3834C1.72323 18.3607 1.60506 18.3841 1.50853 18.4485C1.41199 18.5129 1.34498 18.613 1.32226 18.7268C1.29953 18.8406 1.32294 18.9588 1.38734 19.0553L2.26234 20.3678C2.30218 20.4275 2.3561 20.4765 2.41935 20.5105C2.4826 20.5444 2.55324 20.5623 2.62503 20.5625H3.67502L6.61327 26.0199C6.66827 26.1221 6.76163 26.1983 6.8728 26.2317C6.98398 26.2651 7.10386 26.2529 7.20609 26.1979C7.30831 26.1429 7.3845 26.0496 7.41789 25.9384C7.45129 25.8272 7.43915 25.7073 7.38415 25.6051H7.38546Z" fill="#D79D44"/>
<path d="M13.6369 20.6369L14 21L14.3631 20.6369C14.5258 20.4744 14.7188 20.3456 14.9313 20.2578C15.1437 20.1699 15.3714 20.1248 15.6012 20.125H15.6888C16.0073 19.6101 16.1875 19.25 16.1875 19.25H15.6012C15.3714 19.2498 15.1437 19.2949 14.9313 19.3828C14.7188 19.4706 14.5258 19.5994 14.3631 19.7619L14 20.125L13.6369 19.7619C13.4742 19.5994 13.2812 19.4706 13.0687 19.3828C12.8563 19.2949 12.6286 19.2498 12.3988 19.25H11.8125C11.8125 19.25 11.9928 19.6101 12.3117 20.125H12.3992C12.8633 20.1248 13.3085 20.3089 13.6369 20.6369Z" fill="#D79D44"/>
<path d="M23.1044 22.2338C22.6859 22.1019 22.3323 21.8177 22.1134 21.4375H21C20.9999 21.8108 21.1191 22.1743 21.3403 22.475C21.5615 22.7756 21.873 22.9977 22.2294 23.1088C22.3979 23.1615 22.5735 23.1881 22.75 23.1875C23.0868 23.1873 23.4163 23.0898 23.6989 22.9067C23.9815 22.7236 24.2052 22.4627 24.343 22.1554C24.1175 22.2582 23.8728 22.3118 23.625 22.3125C23.4485 22.313 23.2729 22.2865 23.1044 22.2338Z" fill="#F0AF4C"/>
<path d="M21.875 20.5625C21.8757 20.3148 21.9293 20.07 22.0321 19.8446C21.7248 19.9824 21.4639 20.206 21.2808 20.4886C21.0977 20.7713 21.0002 21.1008 21 21.4375H22.1134C21.9578 21.1721 21.8755 20.8702 21.875 20.5625Z" fill="#FFD45D"/>
<path d="M14.4375 0.875H14.2188V0.65625C14.2188 0.598234 14.1957 0.542594 14.1547 0.50157C14.1137 0.460547 14.058 0.4375 14 0.4375C13.942 0.4375 13.8863 0.460547 13.8453 0.50157C13.8043 0.542594 13.7812 0.598234 13.7812 0.65625V0.875H13.5625C13.5045 0.875 13.4488 0.898047 13.4078 0.93907C13.3668 0.980094 13.3438 1.03573 13.3438 1.09375C13.3438 1.15177 13.3668 1.20741 13.4078 1.24843C13.4488 1.28945 13.5045 1.3125 13.5625 1.3125H13.7812V1.53125C13.7812 1.58927 13.8043 1.64491 13.8453 1.68593C13.8863 1.72695 13.942 1.75 14 1.75C14.058 1.75 14.1137 1.72695 14.1547 1.68593C14.1957 1.64491 14.2188 1.58927 14.2188 1.53125V1.3125H14.4375C14.4955 1.3125 14.5512 1.28945 14.5922 1.24843C14.6332 1.20741 14.6562 1.15177 14.6562 1.09375C14.6562 1.03573 14.6332 0.980094 14.5922 0.93907C14.5512 0.898047 14.4955 0.875 14.4375 0.875Z" fill="#FFD45D"/>
<path d="M18.375 3.5H18.1562V3.28125C18.1562 3.22323 18.1332 3.16759 18.0922 3.12657C18.0512 3.08555 17.9955 3.0625 17.9375 3.0625C17.8795 3.0625 17.8238 3.08555 17.7828 3.12657C17.7418 3.16759 17.7188 3.22323 17.7188 3.28125V3.5H17.5C17.442 3.5 17.3863 3.52305 17.3453 3.56407C17.3043 3.60509 17.2812 3.66073 17.2812 3.71875C17.2812 3.77677 17.3043 3.83241 17.3453 3.87343C17.3863 3.91445 17.442 3.9375 17.5 3.9375H17.7188V4.15625C17.7188 4.21427 17.7418 4.26991 17.7828 4.31093C17.8238 4.35195 17.8795 4.375 17.9375 4.375C17.9955 4.375 18.0512 4.35195 18.0922 4.31093C18.1332 4.26991 18.1562 4.21427 18.1562 4.15625V3.9375H18.375C18.433 3.9375 18.4887 3.91445 18.5297 3.87343C18.5707 3.83241 18.5938 3.77677 18.5938 3.71875C18.5938 3.66073 18.5707 3.60509 18.5297 3.56407C18.4887 3.52305 18.433 3.5 18.375 3.5Z" fill="#FFD45D"/>
<path d="M23.1875 18.8125H22.9688V18.5938C22.9688 18.5357 22.9457 18.4801 22.9047 18.4391C22.8637 18.398 22.808 18.375 22.75 18.375C22.692 18.375 22.6363 18.398 22.5953 18.4391C22.5543 18.4801 22.5312 18.5357 22.5312 18.5938V18.8125H22.3125C22.2545 18.8125 22.1988 18.8355 22.1578 18.8766C22.1168 18.9176 22.0938 18.9732 22.0938 19.0312C22.0938 19.0893 22.1168 19.1449 22.1578 19.1859C22.1988 19.227 22.2545 19.25 22.3125 19.25H22.5312V19.4688C22.5312 19.5268 22.5543 19.5824 22.5953 19.6234C22.6363 19.6645 22.692 19.6875 22.75 19.6875C22.808 19.6875 22.8637 19.6645 22.9047 19.6234C22.9457 19.5824 22.9688 19.5268 22.9688 19.4688V19.25H23.1875C23.2455 19.25 23.3012 19.227 23.3422 19.1859C23.3832 19.1449 23.4062 19.0893 23.4062 19.0312C23.4062 18.9732 23.3832 18.9176 23.3422 18.8766C23.3012 18.8355 23.2455 18.8125 23.1875 18.8125Z" fill="#FFD45D"/>
<path d="M3.24499 18.2748L3.10674 18.3662L3.01924 18.2293C3.00772 18.2104 2.99247 18.1939 2.97444 18.181C2.9564 18.1681 2.93593 18.159 2.91428 18.1542C2.89262 18.1494 2.87022 18.149 2.84841 18.1531C2.82661 18.1572 2.80586 18.1657 2.78741 18.178C2.76896 18.1903 2.75318 18.2062 2.74104 18.2248C2.7289 18.2433 2.72064 18.2641 2.71675 18.286C2.71286 18.3078 2.71344 18.3302 2.71843 18.3518C2.72342 18.3734 2.73274 18.3938 2.74581 18.4117L2.83725 18.5482L2.70031 18.6392C2.66602 18.6643 2.64273 18.7015 2.6353 18.7433C2.62786 18.7851 2.63686 18.8281 2.66041 18.8634C2.68397 18.8987 2.72025 18.9236 2.76168 18.9328C2.80311 18.9419 2.84649 18.9347 2.88274 18.9127L3.01924 18.8212L3.11024 18.9582C3.13525 18.9925 3.17254 19.0158 3.21432 19.0232C3.2561 19.0306 3.29914 19.0216 3.33444 18.9981C3.36974 18.9745 3.39458 18.9382 3.40375 18.8968C3.41293 18.8554 3.40574 18.812 3.38368 18.7757L3.29049 18.6375L3.42743 18.5465C3.44638 18.535 3.46281 18.5197 3.47571 18.5017C3.48862 18.4836 3.49775 18.4632 3.50255 18.4415C3.50734 18.4199 3.50771 18.3975 3.50362 18.3757C3.49954 18.3539 3.49109 18.3331 3.47878 18.3147C3.46647 18.2962 3.45055 18.2804 3.43199 18.2683C3.41342 18.2561 3.3926 18.2479 3.37076 18.244C3.34892 18.2401 3.32652 18.2407 3.30491 18.2457C3.28329 18.2507 3.26292 18.26 3.24499 18.2731V18.2748Z" fill="#FFD45D"/>
<path d="M10.5 3.5H10.2812V3.28125C10.2812 3.22323 10.2582 3.16759 10.2172 3.12657C10.1762 3.08555 10.1205 3.0625 10.0625 3.0625C10.0045 3.0625 9.94884 3.08555 9.90782 3.12657C9.8668 3.16759 9.84375 3.22323 9.84375 3.28125V3.5H9.625C9.56698 3.5 9.51134 3.52305 9.47032 3.56407C9.4293 3.60509 9.40625 3.66073 9.40625 3.71875C9.40625 3.77677 9.4293 3.83241 9.47032 3.87343C9.51134 3.91445 9.56698 3.9375 9.625 3.9375H9.84375V4.15625C9.84375 4.21427 9.8668 4.26991 9.90782 4.31093C9.94884 4.35195 10.0045 4.375 10.0625 4.375C10.1205 4.375 10.1762 4.35195 10.2172 4.31093C10.2582 4.26991 10.2812 4.21427 10.2812 4.15625V3.9375H10.5C10.558 3.9375 10.6137 3.91445 10.6547 3.87343C10.6957 3.83241 10.7188 3.77677 10.7188 3.71875C10.7188 3.66073 10.6957 3.60509 10.6547 3.56407C10.6137 3.52305 10.558 3.5 10.5 3.5Z" fill="#FFD45D"/>
<path d="M14.4375 22.75H14.5434C14.5246 22.5864 14.5066 22.4376 14.49 22.3125C14.4594 22.0413 14.4375 21.875 14.4375 21.875L14.42 21.8619C14.2887 22.015 14.1444 22.1681 14 22.3125C13.8556 22.1681 13.7113 22.015 13.58 21.8619L13.5625 21.875C13.5625 21.875 13.5406 22.0413 13.51 22.3125C13.475 22.575 13.4356 22.9381 13.3875 23.3363C13.265 24.4038 13.125 25.7512 13.125 26.25L14 27.5625V23.1875C14 23.0715 14.0461 22.9602 14.1281 22.8781C14.2102 22.7961 14.3215 22.75 14.4375 22.75Z" fill="#D79D44"/>
<path d="M12.6874 22.9779C12.6877 23.0418 12.6738 23.1049 12.6468 23.1628C12.6198 23.2206 12.5803 23.2718 12.5312 23.3126C12.102 23.6709 10.9374 24.7415 10.9374 25.8125C10.9213 26.1419 11.0368 26.4641 11.2583 26.7083C11.4798 26.9526 11.7893 27.0989 12.1186 27.1149C12.1624 27.1171 12.2061 27.125 12.2499 27.125C12.0448 26.7095 11.8976 26.2679 11.8124 25.8125L12.2499 25.375C12.2499 25.375 12.0049 25.375 12.0049 24.9375C12.0049 24.5919 12.9849 23.695 13.3874 23.3363C13.4355 22.9381 13.4749 22.575 13.5099 22.3125C13.2204 22.3447 12.9406 22.4355 12.6874 22.5794V22.9779Z" fill="#F0AF4C"/>
<path d="M17.0627 25.8125C17.0627 24.7415 15.8981 23.6687 15.4689 23.3126C15.4198 23.2718 15.3803 23.2206 15.3533 23.1628C15.3263 23.1049 15.3125 23.0418 15.3127 22.9779V22.5794C15.0595 22.4355 14.7797 22.3447 14.4902 22.3125C14.5252 22.575 14.5646 22.9381 14.6127 23.3363C15.0152 23.695 15.9952 24.5919 15.9952 24.9375C15.9952 25.375 15.7502 25.375 15.7502 25.375L16.1877 25.8125C16.1025 26.2679 15.9553 26.7095 15.7502 27.125C15.794 27.125 15.8377 27.1171 15.8815 27.1149C16.2108 27.0989 16.5203 26.9526 16.7418 26.7083C16.9633 26.4641 17.0788 26.1419 17.0627 25.8125Z" fill="#F0AF4C"/>
<path d="M11.8126 19.25C11.5807 19.2493 11.3586 19.1569 11.1946 18.993C11.0307 18.829 10.9383 18.6069 10.9376 18.375C10.405 18.3823 9.87971 18.5006 9.39539 18.7224C9.4469 18.9285 9.54651 19.1194 9.68605 19.2795C9.8256 19.4397 10.0011 19.5645 10.1982 19.6437C10.2888 19.6757 10.3669 19.7357 10.4211 19.815C10.4754 19.8942 10.503 19.9887 10.5001 20.0847V21.4375C10.5001 21.4375 10.9376 22.3125 11.8126 21.4375C11.8126 21.4375 10.5001 19.25 11.8126 19.25Z" fill="#D79D44"/>
<path d="M17.8019 19.6437C17.999 19.5645 18.1746 19.4396 18.3141 19.2794C18.4537 19.1191 18.5532 18.9281 18.6047 18.7219C18.1203 18.5004 17.5951 18.3822 17.0625 18.375C17.0618 18.6069 16.9694 18.829 16.8055 18.993C16.6415 19.1569 16.4194 19.2493 16.1875 19.25C17.5 19.25 16.1875 21.4375 16.1875 21.4375C17.0625 22.3125 17.5 21.4375 17.5 21.4375V20.0847C17.497 19.9887 17.5247 19.8942 17.5789 19.815C17.6332 19.7357 17.7113 19.6757 17.8019 19.6437Z" fill="#D79D44"/>
<path d="M16.625 17.9375C15.4647 17.9375 14.3519 17.4766 13.5314 16.6561C12.7109 15.8356 12.25 14.7228 12.25 13.5625V12.25H10.9375V18.375C10.9382 18.6069 11.0306 18.829 11.1945 18.993C11.3585 19.1569 11.5806 19.2493 11.8125 19.25H12.3988C12.6286 19.2498 12.8563 19.2949 13.0687 19.3828C13.2812 19.4706 13.4742 19.5994 13.6369 19.7619L14 20.125L14.3631 19.7619C14.5258 19.5994 14.7188 19.4706 14.9313 19.3828C15.1437 19.2949 15.3714 19.2498 15.6012 19.25H16.1875C16.4194 19.2493 16.6415 19.1569 16.8055 18.993C16.9694 18.829 17.0618 18.6069 17.0625 18.375V17.9375H16.625Z" fill="#CD2E3A"/>
<path d="M14 12.25H10.9375V18.375C10.9382 18.6069 11.0306 18.829 11.1945 18.993C11.3585 19.1569 11.5806 19.2493 11.8125 19.25H12.3988C12.6286 19.2498 12.8563 19.2949 13.0687 19.3828C13.2812 19.4706 13.4742 19.5994 13.6369 19.7619L14 20.125L14.3631 19.7619C14.5258 19.5994 14.7188 19.4706 14.9313 19.3828C15.1437 19.2949 15.3714 19.2498 15.6012 19.25H16.1875C16.4194 19.2493 16.6415 19.1569 16.8055 18.993C16.9694 18.829 17.0618 18.6069 17.0625 18.375V12.25H14ZM16.8438 18.375C16.8438 18.549 16.7746 18.716 16.6515 18.839C16.5285 18.9621 16.3615 19.0312 16.1875 19.0312H15.6012C15.0794 19.0323 14.5789 19.2392 14.2087 19.607L14 19.8157L13.7913 19.607C13.4211 19.2392 12.9206 19.0323 12.3988 19.0312H11.8125C11.6385 19.0312 11.4715 18.9621 11.3485 18.839C11.2254 18.716 11.1562 18.549 11.1562 18.375V12.4688H16.8438V18.375Z" fill="#FFEF96"/>
<path d="M13.9738 9.58562C13.9349 8.98095 13.7044 8.40437 13.3158 7.93947C12.9272 7.47457 12.4007 7.14551 11.8125 7L12.6875 6.125L11.7574 6.46581C11.6417 6.51264 11.5432 6.59366 11.4748 6.69804C11.4065 6.80241 11.3717 6.92517 11.375 7.04988C11.3701 7.17252 11.4031 7.2937 11.4695 7.39694C11.5358 7.50019 11.6324 7.58049 11.746 7.62694C12.3642 7.83738 12.6092 8.58331 12.6949 9.31394C12.7266 9.50771 12.7171 9.70597 12.6672 9.89585C12.6173 10.0857 12.5279 10.263 12.405 10.4161C12.2821 10.5692 12.1284 10.6948 11.9538 10.7846C11.7792 10.8744 11.5877 10.9265 11.3916 10.9375H10.5C10.5 11.2856 10.6383 11.6194 10.8844 11.8656C11.1306 12.1117 11.4644 12.25 11.8125 12.25H14V10.5C14 10.1631 13.9913 9.86125 13.9738 9.58562Z" fill="#F0AF4C"/>
<path d="M15.3051 9.31394C15.3926 8.58331 15.6358 7.83738 16.254 7.62694C16.3676 7.58049 16.4642 7.50019 16.5305 7.39694C16.5969 7.2937 16.6299 7.17252 16.625 7.04988C16.6283 6.92517 16.5935 6.80241 16.5252 6.69804C16.4568 6.59366 16.3583 6.51264 16.2426 6.46581L15.3125 6.125L16.1875 7C15.5993 7.14551 15.0728 7.47457 14.6842 7.93947C14.2956 8.40437 14.0651 8.98095 14.0263 9.58562C14.0088 9.86125 14 10.1631 14 10.5V12.25H16.1875C16.5356 12.25 16.8694 12.1117 17.1156 11.8656C17.3617 11.6194 17.5 11.2856 17.5 10.9375H16.6084C16.4123 10.9265 16.2208 10.8744 16.0462 10.7846C15.8716 10.6948 15.7179 10.5692 15.595 10.4161C15.4721 10.263 15.3827 10.0857 15.3328 9.89585C15.2829 9.70597 15.2734 9.50771 15.3051 9.31394Z" fill="#F0AF4C"/>
<path d="M15.5744 3.91605C14.8835 3.88355 14.1983 3.77468 13.5313 3.59143C13.2653 3.51545 13.0209 3.37791 12.8179 3.18995C12.6149 3.00199 12.4589 2.76889 12.3627 2.50949C12.2867 2.68386 12.2481 2.87226 12.2494 3.06249C12.2559 3.53755 12.4155 3.99785 12.7044 4.37499H12.6869V4.81249H15.3119V4.37499H15.2944C15.4232 4.24668 15.5192 4.08927 15.5744 3.91605Z" fill="#F0AF4C"/>
<path d="M7.38525 25.6051L4.43037 20.1176L4.76637 19.4456C4.81802 19.3418 4.82636 19.2217 4.78955 19.1117L4.35205 17.7992C4.3339 17.7447 4.30517 17.6942 4.26751 17.6507C4.22985 17.6072 4.18399 17.5716 4.13256 17.5458C4.08113 17.5201 4.02513 17.5047 3.96776 17.5006C3.91038 17.4965 3.85276 17.5037 3.79818 17.5219C3.7436 17.54 3.69313 17.5688 3.64965 17.6064C3.60617 17.6441 3.57054 17.6899 3.54478 17.7414C3.49276 17.8452 3.48414 17.9655 3.5208 18.0757L3.90055 19.2163L3.66693 19.6875H3.6573L7.27281 26.1432C7.35114 26.0806 7.40521 25.9926 7.42572 25.8944C7.44624 25.7962 7.43193 25.6939 7.38525 25.6051Z" fill="#F0AF4C"/>
</svg>
